<?xml version="1.0" standalone="no"?>
<!DOCTYPE svg PUBLIC "-//W3C//DTD SVG 20010904//EN"
 "http://www.w3.org/TR/2001/REC-SVG-20010904/DTD/svg10.dtd">
<svg version="1.0" xmlns="http://www.w3.org/2000/svg"
 width="700.000000pt" height="700.000000pt" viewBox="0 0 700.000000 700.000000"
 preserveAspectRatio="xMidYMid meet">
<metadata>
Created by potrace 1.14, written by Peter Selinger 2001-2017
</metadata>
<g transform="translate(0.000000,700.000000) scale(0.100000,-0.100000)"
fill="#000000" stroke="none">
<path d="M1155 5788 c-33 -5 -84 -20 -115 -35 -63 -31 -149 -112 -173 -163
-50 -106 -47 -3 -45 -1764 l3 -1641 34 -67 c42 -84 110 -149 199 -191 l67 -32
2346 -2 c1386 0 2366 3 2395 8 140 26 262 141 300 283 11 42 13 334 11 1686
l-2 1635 -26 55 c-51 106 -142 186 -249 217 -50 15 -257 17 -2370 17 -1274 1
-2342 -2 -2375 -6z m4471 -1946 l1 -1502 -2126 2 -2126 3 -1 1490 c0 820 3
1495 7 1500 5 7 721 10 2126 10 l2118 0 1 -1503z"/>
<path d="M2850 5012 c-30 -64 -35 -100 -21 -137 13 -34 1 -51 -47 -68 -26 -10
-52 -17 -58 -17 -5 0 -24 19 -41 43 -24 34 -42 48 -90 65 -72 26 -72 26 -101
4 l-22 -17 21 -65 c26 -77 32 -85 82 -117 41 -26 41 -28 8 -105 -17 -41 -16
-41 -81 -28 -40 8 -53 5 -110 -21 -73 -34 -79 -40 -72 -75 3 -19 20 -33 65
-55 55 -28 66 -30 122 -24 l62 6 21 -52 c12 -28 22 -55 22 -58 0 -3 -18 -17
-40 -31 -40 -25 -57 -52 -86 -132 -14 -41 -14 -43 10 -67 l25 -25 71 28 c58
23 76 36 100 71 l30 44 52 -19 53 -19 0 -73 c0 -62 4 -81 30 -127 29 -53 56
-69 83 -52 19 12 70 129 67 152 -2 13 -6 40 -10 59 -7 35 -6 35 51 57 31 12
61 20 66 17 4 -3 16 -20 25 -37 21 -42 35 -51 110 -77 l63 -21 22 21 22 20
-23 71 c-20 61 -29 75 -67 102 -24 17 -44 36 -44 41 0 21 43 115 51 110 4 -2
32 -7 62 -10 49 -5 62 -3 117 27 56 30 61 35 58 63 -3 26 -11 35 -58 59 -60
30 -83 34 -146 23 l-41 -6 -24 57 -25 58 45 30 c40 26 49 39 68 95 28 83 28
94 -1 110 -21 11 -34 9 -91 -11 -58 -21 -72 -31 -99 -70 l-31 -46 -55 23 c-59
24 -59 24 -48 104 4 26 -3 52 -26 100 -28 59 -34 65 -63 66 -30 1 -34 -3 -63
-64z m162 -364 c160 -90 107 -341 -77 -356 -67 -5 -119 11 -157 51 -129 135
-27 349 157 330 22 -3 56 -14 77 -25z"/>
<path d="M3549 4287 c-44 -11 -55 -26 -59 -84 -7 -102 -3 -142 19 -178 11 -20
21 -42 21 -49 0 -7 -28 -33 -62 -59 l-63 -46 -32 34 c-46 49 -69 61 -156 80
-86 18 -96 15 -121 -34 -12 -24 -9 -33 26 -99 36 -64 47 -77 103 -109 l63 -36
-27 -76 c-19 -53 -31 -75 -41 -73 -78 19 -117 14 -198 -23 l-82 -38 0 -44 0
-44 76 -34 c83 -38 105 -42 176 -30 l47 7 22 -73 c12 -41 22 -76 22 -79 0 -2
-27 -18 -58 -35 -53 -28 -62 -38 -101 -111 l-43 -80 22 -33 c25 -37 34 -37
180 -5 15 3 49 26 74 51 53 50 47 51 135 -15 l47 -35 -27 -51 c-28 -54 -33
-109 -18 -207 7 -45 9 -47 49 -57 l42 -11 57 62 c61 65 70 86 87 197 1 3 37 6
81 5 87 0 84 2 94 -66 8 -57 18 -73 79 -138 l57 -62 39 12 c46 14 51 26 56
143 3 65 1 84 -15 106 -40 56 -36 71 30 118 33 23 63 42 68 42 4 0 27 -20 51
-45 24 -25 50 -45 57 -45 19 0 19 0 56 -11 18 -5 51 -12 73 -15 37 -5 43 -2
64 27 l24 32 -40 76 c-34 64 -49 81 -93 108 -29 18 -58 34 -64 36 -7 2 -2 31
14 81 l24 77 50 -7 c75 -11 90 -8 174 33 81 40 78 35 73 108 -1 9 -33 30 -78
51 -69 32 -84 35 -135 30 -31 -3 -62 -7 -68 -8 -11 -3 -60 119 -60 146 0 6 19
20 43 30 61 29 73 41 118 123 l41 74 -24 34 c-12 19 -27 35 -33 35 -5 0 -48
-9 -94 -20 -75 -17 -89 -23 -129 -63 l-45 -45 -63 46 c-35 25 -64 48 -64 52 0
3 12 30 26 60 23 49 25 61 19 124 -4 39 -7 79 -7 88 1 20 -13 32 -55 46 -31
10 -33 9 -92 -54 -56 -60 -81 -108 -81 -156 0 -43 -9 -48 -91 -48 -78 0 -79 0
-84 28 -24 110 -27 117 -84 177 -56 58 -60 60 -92 52z m396 -541 c213 -97 255
-381 79 -535 -64 -57 -117 -76 -214 -76 -73 0 -93 4 -142 28 -274 134 -223
539 77 607 54 13 144 2 200 -24z"/>
<path d="M2107 1615 c-175 -30 -306 -155 -341 -329 -7 -34 -11 -65 -9 -71 5
-15 3469 -13 3484 2 16 16 -5 100 -43 180 -49 101 -150 181 -268 213 -59 16
-2729 21 -2823 5z"/>
</g>
</svg>
